<svg xmlns="http://www.w3.org/2000/svg" width="687" height="1042"><defs><clipPath id="a"><path fill="#fff" d="M115 1034s5-43 56-44.001c72.429-1.42 73.894 57.183 196 51 79-4 97-66 81-101s-127-59-181-59-196-13-255-197 130-236 215-230c91.042 6.426 193 52 234 3s-83-73-118-80-84.03-19.267-145-44c-106-43-147-114-147-114S13.62 96.935 114 43C248-29 391.777-2.696 494 85c88.749 76.136 172 31 195 12"/></clipPath></defs><path fill="none" stroke="#000" stroke-dasharray="6 7" stroke-miterlimit="50" stroke-width="2" d="M115 1034v0s5-43 56-44.001c72.429-1.42 73.894 57.183 196 51 79-4 97-66 81-101s-127-59-181-59-196-13-255-197 130-236 215-230c91.042 6.426 193 52 234 3s-83-73-118-80-84.03-19.267-145-44c-106-43-147-114-147-114v0S13.62 96.935 114 43C248-29 391.777-2.696 494 85c88.749 76.136 172 31 195 12" clip-path="url(&quot;#a&quot;)" opacity=".2"/></svg>