<svg xmlns="http://www.w3.org/2000/svg" width="494" height="1042"><defs><clipPath id="a"><path fill="#fff" d="M115 1033.999s5-43 56-44c72.429-1.42 73.894 57.182 196 51 79-4 97-66 81-101s-127-59-181-59-196-13-255-197 130-236 215-230c91.042 6.426 193 52 234 3s-83-73-118-80-84.03-19.268-145-44c-106-43-147-114-147-114s-37.38-122.064 63-176c134-72 277.777-45.695 380 42"/></clipPath></defs><path fill="none" stroke="#000" stroke-dasharray="6 7" stroke-miterlimit="50" stroke-width="2" d="M115 1033.999v0s5-43 56-44c72.429-1.42 73.894 57.182 196 51 79-4 97-66 81-101s-127-59-181-59-196-13-255-197 130-236 215-230c91.042 6.426 193 52 234 3s-83-73-118-80-84.03-19.268-145-44c-106-43-147-114-147-114v0s-37.38-122.064 63-176c134-72 277.777-45.695 380 42" clip-path="url(&quot;#a&quot;)" opacity=".2"/></svg>